<mxfile host="app.diagrams.net" agent="Mozilla/5.0 (Macintosh; Intel Mac OS X 10_15_7) AppleWebKit/537.36 (KHTML, like Gecko) Chrome/131.0.0.0 Safari/537.36" version="25.0.3">
  <diagram name="Page-1" id="lOc0jeE1eKPS-Ijq8Sfa">
    <mxGraphModel dx="984" dy="562" grid="1" gridSize="10" guides="1" tooltips="1" connect="1" arrows="1" fold="1" page="1" pageScale="1" pageWidth="850" pageHeight="1100" math="0" shadow="0">
      <root>
        <mxCell id="0" />
        <mxCell id="1" parent="0" />
        <mxCell id="LRTzG4b5gNRhA54WOF14-3" style="edgeStyle=orthogonalEdgeStyle;rounded=0;orthogonalLoop=1;jettySize=auto;html=1;exitX=0.5;exitY=1;exitDx=0;exitDy=0;entryX=0.5;entryY=0;entryDx=0;entryDy=0;" edge="1" parent="1" source="LRTzG4b5gNRhA54WOF14-1" target="LRTzG4b5gNRhA54WOF14-2">
          <mxGeometry relative="1" as="geometry" />
        </mxCell>
        <mxCell id="LRTzG4b5gNRhA54WOF14-1" value="Inicio" style="ellipse;whiteSpace=wrap;html=1;aspect=fixed;" vertex="1" parent="1">
          <mxGeometry x="360" y="40" width="80" height="80" as="geometry" />
        </mxCell>
        <mxCell id="LRTzG4b5gNRhA54WOF14-5" value="" style="edgeStyle=orthogonalEdgeStyle;rounded=0;orthogonalLoop=1;jettySize=auto;html=1;" edge="1" parent="1" source="LRTzG4b5gNRhA54WOF14-2" target="LRTzG4b5gNRhA54WOF14-4">
          <mxGeometry relative="1" as="geometry" />
        </mxCell>
        <mxCell id="LRTzG4b5gNRhA54WOF14-2" value="Mostrar mensaje: &quot;Por favor, ingrese las medidas de la pieza del mueble en cms: &quot;" style="shape=parallelogram;perimeter=parallelogramPerimeter;whiteSpace=wrap;html=1;fixedSize=1;fillColor=#60a917;fontColor=#ffffff;strokeColor=#2D7600;" vertex="1" parent="1">
          <mxGeometry x="315" y="190" width="170" height="100" as="geometry" />
        </mxCell>
        <mxCell id="LRTzG4b5gNRhA54WOF14-7" style="edgeStyle=orthogonalEdgeStyle;rounded=0;orthogonalLoop=1;jettySize=auto;html=1;exitX=0.5;exitY=1;exitDx=0;exitDy=0;entryX=0.5;entryY=0;entryDx=0;entryDy=0;" edge="1" parent="1" source="LRTzG4b5gNRhA54WOF14-4" target="LRTzG4b5gNRhA54WOF14-6">
          <mxGeometry relative="1" as="geometry" />
        </mxCell>
        <mxCell id="LRTzG4b5gNRhA54WOF14-4" value="Convertir medidas_en_pulgadas = medidas_en_cms / 2.54" style="whiteSpace=wrap;html=1;fillColor=#e3c800;strokeColor=#B09500;fontColor=#000000;" vertex="1" parent="1">
          <mxGeometry x="310" y="390" width="180" height="60" as="geometry" />
        </mxCell>
        <mxCell id="LRTzG4b5gNRhA54WOF14-9" value="" style="edgeStyle=orthogonalEdgeStyle;rounded=0;orthogonalLoop=1;jettySize=auto;html=1;" edge="1" parent="1" source="LRTzG4b5gNRhA54WOF14-6" target="LRTzG4b5gNRhA54WOF14-8">
          <mxGeometry relative="1" as="geometry" />
        </mxCell>
        <mxCell id="LRTzG4b5gNRhA54WOF14-6" value="Mostrar mensaje: &quot;Las medidas en pulgadas de la pieza ingresada son:&quot;, medidas_en_pulgadas" style="shape=parallelogram;perimeter=parallelogramPerimeter;whiteSpace=wrap;html=1;fixedSize=1;fillColor=#60a917;fontColor=#ffffff;strokeColor=#2D7600;" vertex="1" parent="1">
          <mxGeometry x="288" y="505" width="225" height="95" as="geometry" />
        </mxCell>
        <mxCell id="LRTzG4b5gNRhA54WOF14-8" value="Fin" style="ellipse;whiteSpace=wrap;html=1;" vertex="1" parent="1">
          <mxGeometry x="360.5" y="687.5" width="80" height="80" as="geometry" />
        </mxCell>
      </root>
    </mxGraphModel>
  </diagram>
</mxfile>
